<mxfile host="Electron" agent="Mozilla/5.0 (Windows NT 10.0; Win64; x64) AppleWebKit/537.36 (KHTML, like Gecko) draw.io/24.7.17 Chrome/128.0.6613.36 Electron/32.0.1 Safari/537.36" version="24.7.17">
  <diagram name="Page-1" id="8_Zq4DjIdJMb8DLLexRg">
    <mxGraphModel dx="794" dy="519" grid="1" gridSize="10" guides="1" tooltips="1" connect="1" arrows="1" fold="1" page="1" pageScale="1" pageWidth="1169" pageHeight="827" math="0" shadow="0">
      <root>
        <mxCell id="0" />
        <mxCell id="1" parent="0" />
        <mxCell id="I8WwT_ZxPJL8er91cmqr-1" value="Idle" style="ellipse;whiteSpace=wrap;html=1;" vertex="1" parent="1">
          <mxGeometry x="525" y="210" width="120" height="80" as="geometry" />
        </mxCell>
        <mxCell id="I8WwT_ZxPJL8er91cmqr-2" value="StartFall" style="ellipse;whiteSpace=wrap;html=1;" vertex="1" parent="1">
          <mxGeometry x="400" y="400" width="120" height="80" as="geometry" />
        </mxCell>
        <mxCell id="I8WwT_ZxPJL8er91cmqr-3" value="FallDetected" style="ellipse;whiteSpace=wrap;html=1;" vertex="1" parent="1">
          <mxGeometry x="710" y="480" width="120" height="80" as="geometry" />
        </mxCell>
        <mxCell id="I8WwT_ZxPJL8er91cmqr-6" value="" style="curved=0;endArrow=classic;html=1;rounded=1;entryX=0.538;entryY=-0.018;entryDx=0;entryDy=0;entryPerimeter=0;exitX=0;exitY=0.5;exitDx=0;exitDy=0;" edge="1" parent="1" source="I8WwT_ZxPJL8er91cmqr-1" target="I8WwT_ZxPJL8er91cmqr-2">
          <mxGeometry width="50" height="50" relative="1" as="geometry">
            <mxPoint x="470" y="350" as="sourcePoint" />
            <mxPoint x="500" y="250" as="targetPoint" />
            <Array as="points">
              <mxPoint x="470" y="320" />
            </Array>
          </mxGeometry>
        </mxCell>
        <mxCell id="I8WwT_ZxPJL8er91cmqr-9" value="module &amp;lt;&amp;nbsp;FALL_LOW_LEVEL&amp;nbsp;" style="text;html=1;align=center;verticalAlign=middle;whiteSpace=wrap;rounded=0;" vertex="1" parent="1">
          <mxGeometry x="290" y="280" width="200" height="60" as="geometry" />
        </mxCell>
        <mxCell id="I8WwT_ZxPJL8er91cmqr-10" value="" style="endArrow=none;html=1;rounded=0;entryX=0;entryY=0.5;entryDx=0;entryDy=0;" edge="1" parent="1" target="I8WwT_ZxPJL8er91cmqr-2">
          <mxGeometry width="50" height="50" relative="1" as="geometry">
            <mxPoint x="320" y="440" as="sourcePoint" />
            <mxPoint x="350" y="430" as="targetPoint" />
          </mxGeometry>
        </mxCell>
        <mxCell id="I8WwT_ZxPJL8er91cmqr-11" value="" style="endArrow=none;html=1;rounded=0;strokeWidth=3;" edge="1" parent="1">
          <mxGeometry width="50" height="50" relative="1" as="geometry">
            <mxPoint x="320" y="480" as="sourcePoint" />
            <mxPoint x="320" y="400" as="targetPoint" />
          </mxGeometry>
        </mxCell>
        <mxCell id="I8WwT_ZxPJL8er91cmqr-12" value="Enregistrer max module pendant&amp;nbsp;&lt;br&gt;TIME_FALL_MAX_DETECTION&lt;div&gt;=&amp;gt; Blocant pendant cette durÃ©e&lt;/div&gt;" style="text;html=1;align=right;verticalAlign=middle;whiteSpace=wrap;rounded=0;" vertex="1" parent="1">
          <mxGeometry x="110" y="400" width="200" height="80" as="geometry" />
        </mxCell>
        <mxCell id="I8WwT_ZxPJL8er91cmqr-13" value="" style="curved=0;endArrow=classic;html=1;rounded=1;exitX=1;exitY=1;exitDx=0;exitDy=0;" edge="1" parent="1" source="I8WwT_ZxPJL8er91cmqr-2" target="I8WwT_ZxPJL8er91cmqr-3">
          <mxGeometry width="50" height="50" relative="1" as="geometry">
            <mxPoint x="615" y="490" as="sourcePoint" />
            <mxPoint x="555" y="639" as="targetPoint" />
            <Array as="points">
              <mxPoint x="580" y="520" />
            </Array>
          </mxGeometry>
        </mxCell>
        <mxCell id="I8WwT_ZxPJL8er91cmqr-15" value="" style="curved=0;endArrow=classic;html=1;rounded=1;entryX=0.761;entryY=0.952;entryDx=0;entryDy=0;entryPerimeter=0;exitX=1.002;exitY=0.403;exitDx=0;exitDy=0;exitPerimeter=0;" edge="1" parent="1" source="I8WwT_ZxPJL8er91cmqr-2" target="I8WwT_ZxPJL8er91cmqr-1">
          <mxGeometry width="50" height="50" relative="1" as="geometry">
            <mxPoint x="690" y="310" as="sourcePoint" />
            <mxPoint x="630" y="459" as="targetPoint" />
            <Array as="points">
              <mxPoint x="600" y="370" />
            </Array>
          </mxGeometry>
        </mxCell>
        <mxCell id="I8WwT_ZxPJL8er91cmqr-16" value="max(module pdt 1s) &amp;lt; FALL_HIGH_LEVEL&amp;nbsp;" style="text;html=1;align=center;verticalAlign=middle;whiteSpace=wrap;rounded=0;" vertex="1" parent="1">
          <mxGeometry x="570" y="330" width="200" height="60" as="geometry" />
        </mxCell>
        <mxCell id="I8WwT_ZxPJL8er91cmqr-17" value="max(module pdt 1s) &amp;gt; FALL_HIGH_LEVEL&amp;nbsp;" style="text;html=1;align=center;verticalAlign=middle;whiteSpace=wrap;rounded=0;" vertex="1" parent="1">
          <mxGeometry x="470" y="520" width="200" height="60" as="geometry" />
        </mxCell>
        <mxCell id="I8WwT_ZxPJL8er91cmqr-19" value="" style="endArrow=none;html=1;rounded=0;" edge="1" parent="1">
          <mxGeometry width="50" height="50" relative="1" as="geometry">
            <mxPoint x="830" y="519.58" as="sourcePoint" />
            <mxPoint x="880" y="520" as="targetPoint" />
          </mxGeometry>
        </mxCell>
        <mxCell id="I8WwT_ZxPJL8er91cmqr-21" value="" style="endArrow=none;html=1;rounded=0;strokeWidth=3;" edge="1" parent="1">
          <mxGeometry width="50" height="50" relative="1" as="geometry">
            <mxPoint x="880" y="560" as="sourcePoint" />
            <mxPoint x="880" y="480" as="targetPoint" />
          </mxGeometry>
        </mxCell>
        <mxCell id="I8WwT_ZxPJL8er91cmqr-22" value="Message de chute&lt;div&gt;Attendre 5s&lt;/div&gt;" style="text;html=1;align=left;verticalAlign=middle;whiteSpace=wrap;rounded=0;" vertex="1" parent="1">
          <mxGeometry x="900" y="490" width="160" height="60" as="geometry" />
        </mxCell>
        <mxCell id="I8WwT_ZxPJL8er91cmqr-23" value="" style="curved=0;endArrow=classic;html=1;rounded=1;exitX=0.667;exitY=0;exitDx=0;exitDy=0;exitPerimeter=0;entryX=1;entryY=0.5;entryDx=0;entryDy=0;dashed=1;" edge="1" parent="1" source="I8WwT_ZxPJL8er91cmqr-3" target="I8WwT_ZxPJL8er91cmqr-1">
          <mxGeometry width="50" height="50" relative="1" as="geometry">
            <mxPoint x="800" y="380" as="sourcePoint" />
            <mxPoint x="1008" y="432" as="targetPoint" />
            <Array as="points">
              <mxPoint x="810" y="380" />
              <mxPoint x="770" y="300" />
            </Array>
          </mxGeometry>
        </mxCell>
        <mxCell id="I8WwT_ZxPJL8er91cmqr-25" value="Au bout des 5s" style="text;html=1;align=center;verticalAlign=middle;whiteSpace=wrap;rounded=0;" vertex="1" parent="1">
          <mxGeometry x="805" y="320" width="90" height="30" as="geometry" />
        </mxCell>
      </root>
    </mxGraphModel>
  </diagram>
</mxfile>
